<svg fill="none" height="24" viewBox="0 0 24 24" width="24" xmlns="http://www.w3.org/2000/svg"><path d="m12 17c2.7614 0 5-2.2386 5-5 0-2.76142-2.2386-5-5-5-2.76142 0-5 2.23858-5 5 0 2.7614 2.23858 5 5 5z" stroke="#808080" stroke-linecap="round" stroke-linejoin="round" stroke-width="2"/><g fill="#808080"><path d="m13 20c0 .5523-.4477 1-1 1s-1-.4477-1-1 .4477-1 1-1 1 .4477 1 1z"/><path d="m13 4c0 .55228-.4477 1-1 1s-1-.44772-1-1 .4477-1 1-1 1 .44772 1 1z"/><path d="m5 12c0 .5523-.44772 1-1 1s-1-.4477-1-1 .44772-1 1-1 1 .4477 1 1z"/><path d="m21 12c0 .5523-.4477 1-1 1s-1-.4477-1-1 .4477-1 1-1 1 .4477 1 1z"/><path d="m18.364 16.9497c.3905.3906.3905 1.0237 0 1.4143-.3906.3905-1.0237.3905-1.4143 0-.3905-.3906-.3905-1.0237 0-1.4143.3906-.3905 1.0237-.3905 1.4143 0z"/><path d="m7.05025 5.63604c.39053.39052.39053 1.02369 0 1.41421-.39052.39053-1.02369.39053-1.41421 0-.39053-.39052-.39053-1.02369 0-1.41421.39052-.39053 1.02369-.39053 1.41421 0z"/><path d="m7.05025 16.9497c.39053.3906.39053 1.0237 0 1.4143-.39052.3905-1.02369.3905-1.41421 0-.39053-.3906-.39053-1.0237 0-1.4143.39052-.3905 1.02369-.3905 1.41421 0z"/><path d="m18.364 5.63604c.3905.39052.3905 1.02369 0 1.41421-.3906.39053-1.0237.39053-1.4143 0-.3905-.39052-.3905-1.02369 0-1.41421.3906-.39053 1.0237-.39053 1.4143 0z"/></g></svg>