<svg fill="none" height="24" viewBox="0 0 24 24" width="24" xmlns="http://www.w3.org/2000/svg"><path d="m10.5867 5.09232c.4064-.06009.8257-.09232 1.2575-.09232 5.105 0 8.4548 4.50484 9.5802 6.2868.1363.2157.2044.3235.2425.4899.0286.1249.0286.322-.0001.4469-.0381.1663-.1067.2749-.2439.492-.2998.4745-.757 1.1415-1.3627 1.8649m-13.49213-7.86546c-2.16207 1.46666-3.62987 3.50436-4.30321 4.57026-.13683.2166-.20524.3249-.24337.4912-.02864.1249-.02865.3219-.00003.4469.03812.1663.10622.2741.24242.4898 1.12541 1.782 4.47528 6.2868 9.58032 6.2868 2.0584 0 3.8314-.7324 5.2884-1.7234m-14.28843-14.2766 18.00003 18m-11.12135-11.12132c-.5429.54292-.87868 1.29292-.87868 2.12132 0 1.6569 1.34313 3 3.00003 3 .8284 0 1.5784-.3358 2.1213-.8787" stroke="#808080" stroke-linecap="round" stroke-linejoin="round" stroke-width="2"/></svg>